/* XPM */
static char *_1b4f79a45e14b20f2c8a9fa76038051kK83hWs2XkA1GIG6[] = {
/* columns rows colors chars-per-pixel */
"50 50 219 2 ",
"   c None",
".  c #4D0000",
"X  c #530000",
"o  c #5C0405",
"O  c #5F0108",
"+  c #6A0D0C",
"@  c #650709",
"#  c #740002",
"$  c #7D0100",
"%  c #751E0E",
"&  c #7E091C",
"*  c #770917",
"=  c #661612",
"-  c #761516",
";  c #6B1E05",
":  c #820906",
">  c #860D09",
",  c #800700",
"<  c #8B1306",
"1  c #911A0D",
"2  c #810C1E",
"3  c #820915",
"4  c #8C1912",
"5  c #891D19",
"6  c #842008",
"7  c #9D2D09",
"8  c #992506",
"9  c #973609",
"0  c #8A221D",
"q  c #97251A",
"w  c #95321B",
"e  c #853A14",
"r  c #A42B00",
"t  c #A7340B",
"y  c #B43E0B",
"u  c #A23213",
"i  c #8A1524",
"p  c #8E1927",
"a  c #8E1C28",
"s  c #921D2A",
"d  c #941C27",
"f  c #8B2725",
"g  c #9C2D25",
"h  c #97292B",
"j  c #83372A",
"k  c #9E2932",
"l  c #9D3730",
"z  c #AB362E",
"x  c #A3312A",
"c  c #A12C32",
"v  c #A63234",
"b  c #AD3A32",
"n  c #AD3A3B",
"m  c #A43B39",
"M  c #B23D39",
"N  c #AC352A",
"B  c #91460C",
"V  c #94490E",
"C  c #964D15",
"Z  c #984A15",
"A  c #99521A",
"S  c #A94217",
"D  c #BF4B16",
"F  c #BC491C",
"G  c #844339",
"H  c #AE4926",
"J  c #A15D27",
"K  c #BA5427",
"L  c #A54539",
"P  c #B8443A",
"I  c #BE5D32",
"U  c #B95B35",
"Y  c #A4622C",
"T  c #AA642E",
"R  c #A86A3D",
"E  c #A56737",
"W  c #B6613A",
"Q  c #C94E1D",
"!  c #C24E1B",
"~  c #C6561C",
"^  c #C45628",
"/  c #D35D22",
"(  c #C74C34",
")  c #D46125",
"_  c #DA6829",
"`  c #CC6534",
"'  c #C7663A",
"]  c #D46731",
"[  c #D06836",
"{  c #D9743B",
"}  c #E77B2F",
"|  c #E37B38",
" . c #E27636",
".. c #AF4F45",
"X. c #BB4645",
"o. c #BD4A46",
"O. c #AB5A5A",
"+. c #A54F56",
"@. c #BB6846",
"#. c #B97A48",
"$. c #BA6F5A",
"%. c #B8705E",
"&. c #AB5B67",
"*. c #996762",
"=. c #AD7A65",
"-. c #BD7B6B",
";. c #C24C44",
":. c #C24E4B",
">. c #C6534C",
",. c #C9554F",
"<. c #CD5D4B",
"1. c #D35C4A",
"2. c #CC5A51",
"3. c #CE5D59",
"4. c #C95755",
"5. c #D15E55",
"6. c #D15F59",
"7. c #C46945",
"8. c #C1744E",
"9. c #DE7B42",
"0. c #D87847",
"q. c #D5635B",
"w. c #D8675E",
"e. c #DB695B",
"r. c #D96353",
"t. c #CB7654",
"y. c #DA7151",
"u. c #E07A41",
"i. c #EA7254",
"p. c #EB7357",
"a. c #DC6B63",
"s. c #E37867",
"d. c #E6823B",
"f. c #B8824F",
"g. c #BF8F5C",
"h. c #B98964",
"j. c #DC804A",
"k. c #C88458",
"l. c #D0845C",
"z. c #C3905D",
"x. c #EB8D44",
"c. c #E68547",
"v. c #EE9147",
"b. c #F2954D",
"n. c #ED9454",
"m. c #EB975E",
"M. c #F49A54",
"N. c #F29D5C",
"B. c #E58A55",
"V. c #F7A94D",
"C. c #F5A25D",
"Z. c #F8AD5A",
"A. c #FAB45F",
"S. c #F7B04A",
"D. c #C88B63",
"F. c #CC8066",
"G. c #D48E6D",
"H. c #D5956D",
"J. c #CB8D76",
"K. c #C99779",
"L. c #D59B7A",
"P. c #D09F75",
"I. c #EA9865",
"U. c #E98472",
"Y. c #E79A7C",
"T. c #F2896A",
"R. c #CDA372",
"E. c #D7A57F",
"W. c #F4A464",
"Q. c #F7AA65",
"!. c #FAA966",
"~. c #F5AB6C",
"^. c #FAAD6A",
"/. c #F5A667",
"(. c #F9B665",
"). c #EEA673",
"_. c #EFAA7C",
"`. c #E7A57A",
"'. c #F5AB74",
"]. c #F6A978",
"[. c #F8B97E",
"{. c #F8B57A",
"}. c #FDC35B",
"|. c #FDCA5E",
" X c #FCC27E",
".X c #BF9C9A",
"XX c #CDA686",
"oX c #DDAA82",
"OX c #D9B387",
"+X c #DEBC9C",
"@X c #E5AE89",
"#X c #F2AF80",
"$X c #F5B482",
"%X c #F8B580",
"&X c #F8BA87",
"*X c #E7BB97",
"=X c #F7BB95",
"-X c #DBB2A3",
";X c #FDC88A",
":X c #FCD083",
">X c #EDC59D",
",X c #FBC997",
"<X c #FCD992",
"1X c #E7C6A9",
"2X c #FBCBA4",
"3X c #F2D3A8",
"4X c #E2C7B7",
"5X c #ECD2BA",
"6X c #F6DDBD",
"7X c #F3DAB6",
"8X c #EFD6C3",
"9X c #F1DBC6",
"0X c #E9DAD5",
"qX c #F6E4C8",
"wX c #F7E8D8",
"eX c #FEF6E3",
"rX c #FFF9EB",
"tX c #FDF7E7",
"yX c #F5E9E3",
/* pixels */
"                                                                                                    ",
"                                                                                                    ",
"                                                                                                    ",
"                                                                                                    ",
"                                                                                                    ",
"                                                                                                    ",
"                                                                                                    ",
"                                                                                                    ",
"                                                                                                    ",
"                                                                                                    ",
"                                                                                                    ",
"                                                                                                    ",
"                                    & & & & & &                                                     ",
"                                  p s p p p s s s                                                   ",
"                            2 2 i n X.X.X.:.4.3.:.s & 2                                             ",
"                          i k k c ,.w.q.5.6.a.a.6.n c k p                                           ",
"                        2 d ;.1.3.w.a.a.6.,.>.:.,.:.>.;.k i                                         ",
"                      X f X.,.5.w.q.5.6.6.:.k d d d v P 1.( p                                       ",
"                      X f 5.e.e.q.q.5.2.X.n m +.&.O.m q ( M 3 #                                     ",
"                      o h 5.p.i.5.w.q.,.k m L.8XyX5X$.: > > : : < 7 < ,                             ",
"                    s L 1.i.i.e.q.w.:.v ..J.9XtX8X%.H K ^ ` 7.t.F.H.t.' t , #                       ",
"                  * a 3.T.T.e.6.w.2.v i -.9XtX8XJ.m ' N.!.!.^.[.,X,X;Xm.K u q                       ",
"                  . - o.Y.=XU.q.2.M 0 + .XrXqX%.g H.,X2X=X[.!.}.}.C.[.&Xn.v.j.q #                   ",
"                  . + P s.].s.2.o.0 j =.0XwXD.H ^ I.&X&X%X[.[.(.V.M.C.'.&X~.{ 1 #                   ",
"                  . + m 1.i.1.;.M + G 1XeX4XH ~ v.M.C.Q.^.%X;X'.N.b.| 9.E.y.F <                     ",
"                  X @ x P ( M b x + j oX>X`._  .M.W.Q.^.<X:XW.[.]. .D t w 4 <                       ",
"                  @ - x z z z z x @ G 1XJ.@.I._.[.~.Z.(.:X[.b.m.j.F U #.L w <                       ",
"                  & i v b z b z g % *.0XO.g @X2X,X'.(.|.A.M.d._ ~ S L.7X*Xk.C                       ",
"                  o + g b z b 0 - =.+X*XL 1 { n.W.&X,X;XC.d._ D K oXqXtX6Xz.C                       ",
"                  O - z >.r.P % = XX3Xf.w 8 ) } x.'.#X_.~.9.! U K.7XwX8XOXf.C                       ",
"                  & s o.s.U.,.0 = K.OXY 9 S d.v.x.c.} { ).l.H -XtX6X>XH.Y                           ",
"                  & h >.e.2.f % e E g.R.' ` ).$X). ._ ) I 8.E.5XeXtXE.T                             ",
"                    s n n h @ ; C V R J.j.c._.&X_.B.{ ) r W 3XqXqX4Xh.B                             ",
"                      i - o           4 ` b.v.x.n.#XI./ t U @XwX4X#.                                ",
"                                      $ ' Z.S.V.n.m.[ F k.D.#.h.h.                                  ",
"                                      < ' (.}.Z.c./ y Z P.R.A B C                                   ",
"                                      7 { ^.Q.c.^ t 9 Z J T                                         ",
"                                        ` u.{ ]     9 C V                                           ",
"                                        Q Q Q                                                       ",
"                                                                                                    ",
"                                                                                                    ",
"                                                                                                    ",
"                                                                                                    ",
"                                                                                                    ",
"                                                                                                    ",
"                                                                                                    ",
"                                                                                                    ",
"                                                                                                    ",
"                                                                                                    ",
"                                                                                                    "
};