/* XPM */
static char *_11fbe867e3d460bc116fb39b62e9620CtAMlqxP1BmDEKdb[] = {
/* columns rows colors chars-per-pixel */
"60 50 190 2 ",
"   c None",
".  c #020101",
"X  c #0D0D0D",
"o  c #0E0E10",
"O  c #0F1417",
"+  c #141313",
"@  c #1C1B1B",
"#  c #181819",
"$  c #130D09",
"%  c #201E1E",
"&  c #0B1A22",
"*  c #201F20",
"=  c #0B2029",
"-  c #092C37",
";  c #242424",
":  c #282727",
">  c #2C2927",
",  c #2C2B2B",
"<  c #312F2D",
"1  c #332C23",
"2  c #35302B",
"3  c #333232",
"4  c #3A3735",
"5  c #3B3935",
"6  c #3B3B3B",
"7  c #493D30",
"8  c #43382C",
"9  c #3B4539",
"0  c #40403F",
"q  c #4F4335",
"w  c #574F3F",
"e  c #5E442A",
"r  c #6C4E31",
"t  c #664D36",
"y  c #685237",
"u  c #795635",
"i  c #08394A",
"p  c #033957",
"a  c #3E3F40",
"s  c #09455A",
"d  c #0D535D",
"f  c #394242",
"g  c #034765",
"h  c #125C65",
"j  c #065577",
"k  c #1A5B7A",
"l  c #2F5862",
"z  c #205E77",
"x  c #3E5A69",
"c  c #076F7D",
"v  c #1D6B78",
"b  c #2A6370",
"n  c #2B6972",
"m  c #256175",
"M  c #2C7274",
"N  c #444343",
"B  c #484745",
"V  c #4B4B4B",
"C  c #4F4940",
"Z  c #544D44",
"A  c #56554A",
"S  c #495655",
"D  c #545454",
"F  c gray37",
"G  c #655847",
"H  c #735B42",
"J  c #635E53",
"K  c #55625B",
"L  c #67675D",
"P  c #65745E",
"I  c #6C6C6C",
"U  c #646464",
"Y  c #7A766D",
"T  c #815C37",
"R  c #8C633A",
"E  c #85663F",
"W  c #96673B",
"Q  c #9E6D3E",
"!  c #8B6947",
"~  c #846646",
"^  c #9C6F42",
"/  c #8F714F",
"(  c #967349",
")  c #866E52",
"_  c #887558",
"`  c #977D5B",
"'  c #A37243",
"]  c #A97240",
"[  c #81776C",
"{  c #9A805C",
"}  c #A5834F",
"|  c #9C8969",
" . c #9A8361",
".. c #918579",
"X. c #A68A65",
"o. c #B99367",
"O. c #BE9C72",
"+. c #BFA67D",
"@. c #C2874F",
"#. c #C29A5F",
"$. c #D29457",
"%. c #E79B57",
"&. c #EEA25B",
"*. c #F1A55D",
"=. c #C79966",
"-. c #D69F64",
";. c #DCAB67",
":. c #CEAC7E",
">. c #DFB27E",
",. c #D1A878",
"<. c #EBA967",
"1. c #F3AC61",
"2. c #E7B668",
"3. c #F6B869",
"4. c #EAB77D",
"5. c #F4BA7A",
"6. c #FDC56C",
"7. c #FFC96E",
"8. c #FDC775",
"9. c #034F81",
"0. c #1A5583",
"q. c #126281",
"w. c #026E91",
"e. c #027B9A",
"r. c #057187",
"t. c #027AAA",
"y. c #007EBA",
"u. c #0075CD",
"i. c #007BCE",
"p. c #007CD2",
"a. c #0075D0",
"s. c #058A9E",
"d. c #03849D",
"f. c #0080BC",
"g. c #0697AD",
"h. c #06A5B9",
"j. c #008ACD",
"k. c #0086C5",
"l. c #0084D5",
"z. c #008BD5",
"x. c #008BD9",
"c. c #0093DB",
"v. c #0090D4",
"b. c #08B9CB",
"n. c #009DE2",
"m. c #00A4E4",
"M. c #01ADE9",
"N. c #02A8E4",
"B. c #01B3EB",
"V. c #01B9EE",
"C. c #01BDF1",
"Z. c #05CDE5",
"A. c #02C3F1",
"S. c #02CBF5",
"D. c #03D4F6",
"F. c #05DAF7",
"G. c #05DCFA",
"H. c #04D3F9",
"J. c #09DBEC",
"K. c #06E2FB",
"L. c #09EDFF",
"P. c #09E4F6",
"I. c gray55",
"U. c #8E8A85",
"Y. c #96928D",
"T. c #9B9B9A",
"R. c #AC9A84",
"E. c #ACA086",
"W. c #BDA881",
"Q. c #BEAD98",
"!. c #ACABAA",
"~. c #B5B1AC",
"^. c #CAAE89",
"/. c #D0AE80",
"(. c #D7B587",
"). c #EEBC82",
"_. c #C9BEAE",
"`. c #E4C18F",
"'. c #EDC18A",
"]. c #F2C48B",
"[. c #E8C795",
"{. c #F5CE98",
"}. c #F8D39D",
"|. c #D2C5B6",
" X c #F6D9A6",
".X c #FFE1A8",
"XX c #FEE8B9",
"oX c #C4C5C6",
"OX c #FCFDFD",
"+X c #F5F6F8",
/* pixels */
"                                                                                                                        ",
"                                                                                                                        ",
"                                                                                                                        ",
"                                                                                                                        ",
"                                                            X                                                           ",
"                                                            3 @       +                                                 ",
"                                                          , D ;     ; 6 +                                               ",
"                                                  +     @ D V , +   6 V @     : @                                       ",
"                                                  , @   3 D B 3 # % V V ;   , D :                                       ",
"                                                ; B # ; V D N 3 ; + V B : o V D ;                                       ",
"                                          +     4 V @ + V B 6 3 , # B a , % D V :                                       ",
"                                        @ N * O N N * + 7 f 3 < < : a 4 , 3 V N : + +                                   ",
"                                        ; D 3 o 6 6 : @ 3 6 , , > , 6 , : , N 6 : @ 3                                   ",
"                                        : V a ; 3 3 , : , 3 , : > > < : ; : 4 , ; : 4 X                                 ",
"                                        ; B 3 3 , , , , : : : : ; ; : ; ; * : : * ; : o                                 ",
"                                        @ 3 : * * @ @ @ @ @ @ @ @ @ @ @ @ @ % @ @ @ @ o                                 ",
"                                        - d.s.s.s.s.d.e.e.w.r.j j g p p i i - = & O + X                                 ",
"                                        h J.P.L.P.P.G.F.H.S.C.M.n.n.l.p.l.l.j.k.y.t.t.c                                 ",
"                                        d J.L.G.P.F.D.D.S.V.B.m.c.x.p.p.z.x.z.l.l.x.M.b.                                ",
"                                        i Z.K.F.F.D.S.A.A.V.M.m.c.l.p.u.x.z.l.i.i.i.m.b.                                ",
"                                          h.Z.D.D.A.C.B.M.m.c.c.x.l.a.u.z.c.c.z.l.l.B.h.                                ",
"                                          9 P M h b n b b z m k j 9.0.x K m y.j.z.c.S.g.                                ",
"                                          r W W u ~ o.`.`.(.o.! r u ^ ^ Q T 4 A S l v d                                 ",
"                                            G H T T E ^. X| ( ' Q W u u y r ' &.%.%.]                                   ",
"                                            U Y Z ..H `  X_ u e G [ Y.!.!.#.1.&.&.@.~                                   ",
"                                            Z T.oXOX~./..X(.U.a I +XOXOX|.2.6.*.$.=.(.,.                                ",
"                                              R._.oX^.{. X{.^.R.R.|.|.^.2.7.6.1.).(.'.).)                               ",
"                                              ^. X(. X[.X.X.4.5.2.*.1.6.6.6.6.1.]./.}./.                                ",
"                                              R.XX XW.Z 3 3 7 / ;.3.8.7.7.7.7.$.X.}.{.)                                 ",
"                                              A Y J B V N 6 3 > 1 y } ;.6.7.2.R   | _                                   ",
"                                              # N D D V 6 3 3 , * # + 1 t ( !                                           ",
"                                      @ 3       ; 7 V B 6 < : ; @ # @ ; # X                                             ",
"                                        U D         : 3 , ; ; @ + # #                                                   ",
"                                        V I.U 3       @ @ ; # O # ,                                                     ",
"                                          I T.I 6     ; 4 , : , @ 6 6                                                   ",
"                                          N I.T.D     : 3 # @ ; ; , N                                                   ",
"                                            F I...) 5 < ; % @ : ; ; a 3                                                 ",
"                                                ` o.y 2 4 , , : : 7 Z 7                                                 ",
"                                                2 / ` m S S v j L ].5.o.                                                ",
"                                                  8 w s f f g p A ;.8.=.                                                ",
"                                                      + X . . . $ t / y                                                 ",
"                                                          X : + X                                                       ",
"                                                        @ + @ + X                                                       ",
"                                                      4 : : 3 X . o                                                     ",
"                                                                                                                        ",
"                                                                                                                        ",
"                                                                                                                        ",
"                                                                                                                        ",
"                                                                                                                        ",
"                                                                                                                        "
};
➜  Downloads