/* XPM */
static char *_d2e783fc61f49a2a37b9e76e57e2e613GLuiz9vFPXfryxO[] = {
/* columns rows colors chars-per-pixel */
"60 50 189 2 ",
"   c None",
".  c #020101",
"X  c #0E0E0E",
"o  c #0F1417",
"O  c #141313",
"+  c #191614",
"@  c #1D1C1C",
"#  c #181819",
"$  c #201E1E",
"%  c #0B1A22",
"&  c #201F20",
"*  c #0B2029",
"=  c #082B3A",
"-  c #0F3136",
";  c #242324",
":  c #282727",
">  c #2C2B2B",
",  c #2E2A26",
"<  c #312F2E",
"1  c #332C23",
"2  c #31302F",
"3  c #2F2F30",
"4  c #343333",
"5  c #383737",
"6  c #3B3935",
"7  c #3B3B3B",
"8  c #463D34",
"9  c #3D463A",
"0  c #40403F",
"q  c #4D4338",
"w  c #5E442A",
"e  c #6A4F33",
"r  c #6C5137",
"t  c #655137",
"y  c #795635",
"u  c #033957",
"i  c #06334C",
"p  c #253D41",
"a  c #3E3F40",
"s  c #12454E",
"d  c #09455A",
"f  c #0C5159",
"g  c #394342",
"h  c #034766",
"j  c #115E69",
"k  c #065577",
"l  c #1A5B7A",
"z  c #2F5862",
"x  c #205E77",
"c  c #3E5A69",
"v  c #1D707B",
"b  c #126A78",
"n  c #2A6370",
"m  c #2B6972",
"M  c #256175",
"N  c #2C7274",
"B  c #434343",
"V  c #484745",
"C  c #4B4B4B",
"Z  c #544D44",
"A  c #595448",
"S  c #495656",
"D  c #545354",
"F  c #655848",
"G  c #735A42",
"H  c #625D52",
"J  c #55625B",
"K  c #66645C",
"L  c #706C53",
"P  c #6B6B6B",
"I  c #636362",
"U  c #777165",
"Y  c #797875",
"T  c #815C37",
"R  c #84613C",
"E  c #8C6339",
"W  c #96673B",
"Q  c #9E6D3E",
"!  c #A8713F",
"~  c #8A6945",
"^  c #856544",
"/  c #9C6F42",
"(  c #967349",
")  c #8E7454",
"_  c #86745B",
"`  c #8D7455",
"'  c #A37243",
"]  c #81766C",
"[  c #9A805C",
"{  c #A5834F",
"}  c #9B8566",
"|  c #918579",
" . c #A58A65",
".. c #BC9365",
"X. c #B9956B",
"o. c #BE9C72",
"O. c #BFA67D",
"+. c #C2874F",
"@. c #C19A5F",
"#. c #D29356",
"$. c #E79C57",
"%. c #EEA25B",
"&. c #F1A55D",
"*. c #D69F64",
"=. c #CC9A64",
"-. c #DCAB67",
";. c #CFAA7A",
":. c #DFB27E",
">. c #EBA967",
",. c #F3AC61",
"<. c #E6B76A",
"1. c #EBB363",
"2. c #F6B869",
"3. c #EAB77D",
"4. c #F4BA7A",
"5. c #FDC56C",
"6. c #FFC96E",
"7. c #FDC775",
"8. c #034F81",
"9. c #1A5583",
"0. c #126281",
"q. c #026E91",
"w. c #027B9A",
"e. c #057187",
"r. c #027AAB",
"t. c #007EBA",
"y. c #0075CD",
"u. c #007BCE",
"i. c #007CD2",
"p. c #0075D0",
"a. c #058A9E",
"s. c #03849D",
"d. c #0080BC",
"f. c #0596AC",
"g. c #06A5B9",
"h. c #008ACD",
"j. c #0086C5",
"k. c #0084D5",
"l. c #008BD5",
"z. c #008BD9",
"x. c #0093DB",
"c. c #0090D4",
"v. c #07B8CA",
"b. c #009DE2",
"n. c #00A4E4",
"m. c #01ADE9",
"M. c #02A8E4",
"N. c #01B3EB",
"B. c #01B9EE",
"V. c #01BDF1",
"C. c #05CDE5",
"Z. c #02C3F1",
"A. c #02CBF5",
"S. c #03D4F6",
"D. c #05DAF7",
"F. c #05DCFA",
"G. c #04D3F9",
"H. c #09DBEC",
"J. c #06E2FB",
"K. c #09EDFF",
"L. c #09E4F6",
"P. c #8D8D8C",
"I. c #8E8A85",
"U. c #96928D",
"Y. c #9B9B9A",
"T. c #AB9A85",
"R. c #ADA189",
"E. c #BDA881",
"W. c #BDAD97",
"Q. c #ABAAA8",
"!. c #B5B1AC",
"~. c #C9AE89",
"^. c #D0AE80",
"/. c #D7B587",
"(. c #EEBC82",
"). c #C8BDAE",
"_. c #E4C18F",
"`. c #EEC189",
"'. c #E8C794",
"]. c #F5CE98",
"[. c #F8D39D",
"{. c #F4C78D",
"}. c #D2C4B5",
"|. c #F6D9A6",
" X c #FFE1A8",
".X c #FEE8B8",
"XX c #C4C5C6",
"oX c #FCFDFD",
"OX c #F6F7F9",
/* pixels */
"                                                                                                                        ",
"                                                                                                                        ",
"                                                                                                                        ",
"                                                                                                                        ",
"                                                          @                                                             ",
"                                                #       # 2                                                             ",
"                                              O 7 ;     ; D >                                                           ",
"                                      @ ;     # C 7   O > C C ;     O                                                   ",
"                                      ; D :   & C C ; @ 4 V D 4   # >                                                   ",
"                                      ; D V O : V C O ; 4 V D V : ; V ;                                                 ",
"                                    X ; C D & < B V @ > 4 7 V V @ ; V 7     @ 8                                         ",
"                                  @ # : B C 3 < 4 B ; > < 4 a g X ; B B > @ g ;                                         ",
"                                O > @ : 7 B > : > 7 : > > > 7 4 @ : 7 7 X 4 D ;                                         ",
"                                X 4 > ; : 5 : & > < : , : > > > : : 4 4 ; 9 C 3                                         ",
"                                X : ; & : , & & ; : ; ; : : : > > > 2 > 4 4 V >                                         ",
"                                X & @ @ $ $ $ + $ @ $ @ @ @ @ @ @ @ @ @ $ ; 4 ;                                         ",
"                                X o o % * = = i i d h k k q.q.q.s.s.s.a.a.a.e.-                                         ",
"                                b r.r.d.j.h.c.z.i.k.b.b.m.V.A.G.D.F.J.J.K.K.L.f                                         ",
"                                v.m.z.k.k.l.c.z.i.i.z.x.M.N.V.A.S.D.D.D.J.L.H.f                                         ",
"                                v.M.i.i.u.k.z.x.p.i.k.x.n.m.B.V.Z.A.S.D.D.J.C.s                                         ",
"                                g.N.k.k.l.z.x.h.y.p.i.z.x.x.M.m.N.B.Z.A.D.C.g.g                                         ",
"                                f.A.x.h.h.t.M J c 9.8.k l x x n n n m j N K 9                                           ",
"                                f N z c A 6 y Q ' ' y r ~ X./._._.O.~ y W W r                                           ",
"                                  ' $.$.%.' e r y y W ' ' ( } |.;.G E y G F                                             ",
"                                  ^ +.$.%.&...Q.Q.U.] F w y ` |.) G | C Y U                                             ",
"                                ;./.=.@.&.5.1.}.OXoXoXP a I./. X^.!.oXXXU.K                                             ",
"                              L (.`.:.7.&.6.6.<./.}.}.T.T.~.]. X].W.}.).T.I                                             ",
"                                ^.|.;.{.1.6.6.6.5.,.>.>.4.(. .} '.|._.|.~.                                              ",
"                                _ '.[. .#.5.6.6.6.7.2.*.( 8 4 4 Z E.|..XR.                                              ",
"                                  _ }   R 1.6.5.-.{ t 1 : 3 7 B C V H U H                                               ",
"                                          ~ ( t 1 O # & > 3 5 7 C D D B 4       7                                       ",
"                                            @ @ ; @ # $ ; : < 5 V C B >       7 0                                       ",
"                                                $ ; @ O @ @ ; > 4 4 7       D P                                         ",
"                                                    3 O o # ; @ 4       4 I P.D                                         ",
"                                                  5 7 @ 3 : 3 5 4     7 P Y.P                                           ",
"                                                  B > ; & @ # 3 4     D Y.P.C                                           ",
"                                                3 B ; ; : @ & ; 4 7 ^ I.P.P                                             ",
"                                                6 Z 8 , ; > > 5 < r ..}                                                 ",
"                                                @.4.(.K k 0.D S M ) ( q                                                 ",
"                                                =.(.-.H u h 9 g f A A                                                   ",
"                                                G ~ t + . . . ; 4 D                                                     ",
"                                                      O O : X                                                           ",
"                                                      X O @ # $                                                         ",
"                                                    X . X < : , 5                                                       ",
"                                                                                                                        ",
"                                                                                                                        ",
"                                                                                                                        ",
"                                                                                                                        ",
"                                                                                                                        ",
"                                                                                                                        "
};