/* XPM */
static char *_12ade081f8d4d298bc41333717d2874lS7irTsokxnZUjvD[] = {
/* columns rows colors chars-per-pixel */
"64 64 8 1 ",
"  c black",
". c #242423",
"X c #342C28",
"o c #413C26",
"O c #484E39",
"+ c #676352",
"@ c #868863",
"# c #A8AB70",
/* pixels */
" o#+OOX  o#+OOX  o#+OOX  o#+OOX  o#+OOX  o#+OOX  o#+OOX .XoooXX.",
" o#++oX  o#++oX  o#++oX  o#++oX  o#++oX  o#++oX  o#++oX o@+++OOX",
" o#+OOX  o#+OOX  o#+OOX  o#+OOX  o#+OOX  o#+OOX  o#+OOX  Xoooo. ",
" o#++oX  o#++oX  o@++oX  o#++oX  o#++oX  o#++oX  o#++oX  o+++oX ",
" o#+OOX  o#+OOX  o#+OOX  o#+OOX  o#+OOX  o#+OOX  o#+OOX  o@+OOX ",
" o#++oX  o#++oX  Xoooo.  o#++oX  o#++oX  o#++oX  o#++oX  o@++oX ",
" o#+OOX  o#+OOX o#@@+OOX o#+OOX  o#+OOX  o#+OOX  o#+OOX  o#+OOX ",
" o#++oX  o#++oX XoooXXX. o#++oX  o#++oX  o#++oX  o#++oX  o#++oX ",
" o#+OOX  o#+OOX .XoooXX. o#+OOX  o#+OOX  o#+OOX  o#+OOX  o#+OOX ",
" o#++oX  o#++oX o@+++OOX o#++oX  o#++oX  o#++oX  o#++oX  o#++oX ",
" o#+OOX  o#+OOX  Xoooo.  o#+OOX  o#+OOX  o#+OOX  o#+OOX  o#+OOX ",
" o@++oX  o#++oX  o+++oX  o#++oX  o#++oX  o#++oX  o#++oX  o#++oX ",
" o#+OOX  o#+OOX  o@+OOX  o#+OOX  o#+OOX  o#+OOX  o#+OOX  o#+OOX ",
" Xoooo.  o#++oX  o@++oX  o#++oX  o#++oX  o#++oX  o#++oX  o#++oX ",
"o#@@+OOX o#+OOX  o#+OOX  o#+OOX  o#+OOX  o#+OOX  o#+OOX  o#+OOX ",
"XoooXXX. o#++oX  o#++oX  o#++oX  o#++oX  o#++oX  o#++oX  o#++oX ",
".XoooXX. o#+OOX  o#+OOX  o#+OOX  o#+OOX  o#+OOX  o#+OOX  o#+OOX ",
"o@+++OOX o#++oX  o#++oX  o#++oX  o#++oX  o#++oX  o#++oX  o#++oX ",
" Xoooo.  o#+OOX  o#+OOX  o#+OOX  o#+OOX  o#+OOX  o#+OOX  o#+OOX ",
" o+++oX  o#++oX  o#++oX  o#++oX  o#++oX  o#++oX  o@++oX  o#++oX ",
" o@+OOX  o#+OOX  o#+OOX  o#+OOX  o#+OOX  o#+OOX  o#+OOX  o#+OOX ",
" o@++oX  o#++oX  o#++oX  o#++oX  o#++oX  o#++oX  Xoooo.  o#++oX ",
" o#+OOX  o#+OOX  o#+OOX  o#+OOX  o#+OOX  o#+OOX o#@@+OOX o#+OOX ",
" o#++oX  o#++oX  o#++oX  o#++oX  o#++oX  o#++oX XoooXXX. o#++oX ",
" o#+OOX  o#+OOX  o#+OOX  o#+OOX  o#+OOX  o#+OOX .XoooXX. o#+OOX ",
" o#++oX  o#++oX  o#++oX  o#++oX  o#++oX  o#++oX o@+++OOX o#++oX ",
" o#+OOX  o#+OOX  o#+OOX  o#+OOX  o#+OOX  o#+OOX  Xoooo.  o#+OOX ",
" o#++oX  o@++oX  o#++oX  o#++oX  o#++oX  o#++oX  o+++oX  o#++oX ",
" o#+OOX  o#+OOX  o#+OOX  o#+OOX  o#+OOX  o#+OOX  o@+OOX  o#+OOX ",
" o#++oX  Xoooo.  o#++oX  o#++oX  o#++oX  o#++oX  o@++oX  o#++oX ",
" o#+OOX o#@@+OOX o#+OOX  o#+OOX  o#+OOX  o#+OOX  o#+OOX  o#+OOX ",
" o#++oX XoooXXX. o#++oX  o#++oX  o#++oX  o#++oX  o#++oX  o#++oX ",
" o#+OOX .XoooXX. o#+OOX  o#+OOX  o#+OOX  o#+OOX  o#+OOX  o#+OOX ",
" o#++oX o@+++OOX o#++oX  o#++oX  o#++oX  o#++oX  o#++oX  o#++oX ",
" o#+OOX  Xoooo.  o#+OOX  o#+OOX  o#+OOX  o#+OOX  o#+OOX  o#+OOX ",
" o#++oX  o+++oX  o#++oX  o#++oX  o@++oX  o#++oX  o#++oX  o#++oX ",
" o#+OOX  o@+OOX  o#+OOX  o#+OOX  o#+OOX  o#+OOX  o#+OOX  o#+OOX ",
" o#++oX  o@++oX  o#++oX  o#++oX  Xoooo.  o#++oX  o#++oX  o#++oX ",
" o#+OOX  o#+OOX  o#+OOX  o#+OOX o#@@+OOX o#+OOX  o#+OOX  o#+OOX ",
" o#++oX  o#++oX  o#++oX  o#++oX XoooXXX. o#++oX  o#++oX  o#++oX ",
" o#+OOX  o#+OOX  o#+OOX  o#+OOX .XoooXX. o#+OOX  o#+OOX  o#+OOX ",
" o#++oX  o#++oX  o#++oX  o#++oX o@+++OOX o#++oX  o#++oX  o#++oX ",
" o#+OOX  o#+OOX  o#+OOX  o#+OOX  Xoooo.  o#+OOX  o#+OOX  o#+OOX ",
" o#++oX  o#++oX  o#++oX  o#++oX  o+++oX  o@++oX  o#++oX  o#++oX ",
" o#+OOX  o#+OOX  o#+OOX  o#+OOX  o@+OOX  o#+OOX  o#+OOX  o#+OOX ",
" o#++oX  o#++oX  o#++oX  o#++oX  o@++oX  Xoooo.  o#++oX  o#++oX ",
" o#+OOX  o#+OOX  o#+OOX  o#+OOX  o#+OOX o#@@+OOX o#+OOX  o#+OOX ",
" o#++oX  o#++oX  o#++oX  o#++oX  o#++oX XoooXXX. o#++oX  o#++oX ",
" o#+OOX  o#+OOX  o#+OOX  o#+OOX  o#+OOX .XoooXX. o#+OOX  o#+OOX ",
" o#++oX  o#++oX  o#++oX  o#++oX  o#++oX o@+++OOX o#++oX  o#++oX ",
" o#+OOX  o#+OOX  o#+OOX  o#+OOX  o#+OOX  Xoooo.  o#+OOX  o#+OOX ",
" o#++oX  o#++oX  o#++oX  o@++oX  o#++oX  o+++oX  o#++oX  o#++oX ",
" o#+OOX  o#+OOX  o#+OOX  o#+OOX  o#+OOX  o@+OOX  o#+OOX  o#+OOX ",
" o#++oX  o#++oX  o#++oX  Xoooo.  o#++oX  o@++oX  o#++oX  o#++oX ",
" o#+OOX  o#+OOX  o#+OOX o#@@+OOX o#+OOX  o#+OOX  o#+OOX  o#+OOX ",
" o#++oX  o#++oX  o#++oX XoooXXX. o#++oX  o#++oX  o#++oX  o#++oX ",
" o#+OOX  o#+OOX  o#+OOX .XoooXX. o#+OOX  o#+OOX  o#+OOX  o#+OOX ",
" o#++oX  o#++oX  o#++oX o@+++OOX o#++oX  o#++oX  o#++oX  o#++oX ",
" o#+OOX  o#+OOX  o#+OOX  Xoooo.  o#+OOX  o#+OOX  o#+OOX  o#+OOX ",
" o#++oX  o#++oX  o#++oX  o+++oX  o#++oX  o#++oX  o#++oX  o@++oX ",
" o#+OOX  o#+OOX  o#+OOX  o@+OOX  o#+OOX  o#+OOX  o#+OOX  o#+OOX ",
" o#++oX  o#++oX  o#++oX  o@++oX  o#++oX  o#++oX  o#++oX  Xoooo. ",
" o#+OOX  o#+OOX  o#+OOX  o#+OOX  o#+OOX  o#+OOX  o#+OOX o#@@+OOX",
" o#++oX  o#++oX  o#++oX  o#++oX  o#++oX  o#++oX  o#++oX XoooXXX."
};